HIERARCHY
ROOT Hips
{
    OFFSET 12.36759090423584 92.19189834594727 -18.226680755615234
    CHANNELS 6 Xposition Yposition Zposition Zrotation Xrotation Yrotation
    JOINT RightUpLeg
    {
        OFFSET -12.36759090423584 0.0 0.0
        CHANNELS 3 Zrotation Xrotation Yrotation
        JOINT RightLeg
        {
            OFFSET 0.0 -46.62519454956055 0.0
            CHANNELS 3 Zrotation Xrotation Yrotation
            JOINT RightFoot
            {
                OFFSET 0.0 -45.56670379638672 0.0
                CHANNELS 3 Zrotation Xrotation Yrotation
                End Site
                {
                    OFFSET 0.0 0.0 18.226680755615234
                }
            }
        }
    }
    JOINT LeftUpLeg
    {
        OFFSET 12.36759090423584 0.0 0.0
        CHANNELS 3 Zrotation Xrotation Yrotation
        JOINT LeftLeg
        {
            OFFSET 0.0 -46.62519454956055 0.0
            CHANNELS 3 Zrotation Xrotation Yrotation
            JOINT LeftFoot
            {
                OFFSET 0.0 -45.56670379638672 0.0
                CHANNELS 3 Zrotation Xrotation Yrotation
                End Site
                {
                    OFFSET 0.0 0.0 18.226680755615234
                }
            }
        }
    }
    JOINT Spine
    {
        OFFSET 0.0 24.183021545410156 0.0
        CHANNELS 3 Zrotation Xrotation Yrotation
        JOINT Spine3
        {
            OFFSET 0.0 25.689224243164062 0.0
            CHANNELS 3 Zrotation Xrotation Yrotation
            JOINT Neck
            {
                OFFSET 0.0 11.569782257080078 0.0
                CHANNELS 3 Zrotation Xrotation Yrotation
                End Site
                {
                    OFFSET 0.0 4.627912998199463 0.0
                }
            }
            JOINT LeftArm
            {
                OFFSET 13.408740997314453 0.0 0.0
                CHANNELS 3 Zrotation Xrotation Yrotation
                JOINT LeftForeArm
                {
                    OFFSET 29.427879333496094 0.0 0.0
                    CHANNELS 3 Zrotation Xrotation Yrotation
                    JOINT LeftHand
                    {
                        OFFSET 20.229333877563477 0.0 0.0
                        CHANNELS 3 Zrotation Xrotation Yrotation
                        End Site
                        {
                            OFFSET 8.091733932495117 0.0 0.0
                        }
                    }
                }
            }
            JOINT RightArm
            {
                OFFSET -13.408740997314453 0.0 0.0
                CHANNELS 3 Zrotation Xrotation Yrotation
                JOINT RightForeArm
                {
                    OFFSET -29.427879333496094 0.0 0.0
                    CHANNELS 3 Zrotation Xrotation Yrotation
                    JOINT RightHand
                    {
                        OFFSET -20.229333877563477 0.0 0.0
                        CHANNELS 3 Zrotation Xrotation Yrotation
                        End Site
                        {
                            OFFSET -8.091733932495117 0.0 0.0
                        }
                    }
                }
            }
        }
    }
}
MOTION
Frames: 11
Frame Time: 0.03333333333333333
4.72479296149686e-05 98.7104721069336 -0.0008773840963840485 -4.738769724761755 -6.422052197732765 -17.30407297571232 5.1709856958940135 14.215241471535432 -1.6620610212156817 -1.0008427070965258 12.398592690686124 -1.189099155321512 7.951386703658792e-16 9.939233379573492e-17 2.9817700138720468e-15 -1.9163390546491936 17.171973251098475 0.09651621919837777 -2.163572537515031 7.7839547132578835 0.33450106974491345 0.0 0.0 -4.174478019420866e-15 7.782023499105111 23.25558935523519 -3.7236052592527287 -1.176696872113798e-07 2.761979057317669e-07 -0.7775955021501505 2.8289199039307906 2.3848269356617005 178.84012732066714 110.34177585977677 -35.58552804929534 -172.14947219868625 -1.9824542603522918e-06 9.755949471097461e-08 28.305355055431647 -3.1805546814635168e-15 -1.7655625192200634e-31 6.3611093629270335e-15 -115.38529609031612 -26.455616855405882 170.26499680707468 -3.439360568086978e-06 -1.0263210930434147e-06 -32.86330987895501 2.2860236773019026e-15 6.344990303447103e-32 3.1805546814635168e-15
8.428901492152363e-05 98.71044921875 -0.0008394417818635702 -4.762602551804179 -6.135862393003788 -15.977981178043404 5.78536930133384 13.53374521715595 -1.5898124930849389 -0.8095577596787128 11.412067833716762 -1.142724706384133 0.0 0.0 9.93923337957349e-17 -1.0519969357849646 17.18525142740697 0.015209141543960907 -2.661107283433046 8.35207887526254 0.392942351561332 -7.951386703658792e-16 3.2799470152592518e-15 -7.951386703658792e-16 8.266813709890648 22.72592895242006 -3.6022166655996464 -4.900491681512181e-07 1.8479141983121073e-06 -1.3610759565480424 2.744475266460748 2.4285027337106517 178.03840511480064 111.67712607984458 -38.9959021599664 -171.54821623890322 -4.727957957877184e-06 -4.636517619792606e-06 30.70327002847702 -3.1805546814635168e-15 -6.361109362927032e-15 -1.2722218725854065e-14 -115.44324037656988 -25.866423341753812 170.11725885474925 -5.490499848077538e-06 2.8407904422558313e-06 -31.851126944822663 1.987846675914698e-16 3.1805546814635168e-15 -5.517382872562698e-33
0.00013560142542701215 98.71041870117188 -0.0008063296554610133 -4.814744593900834 -5.712886548307 -15.00861474737993 6.345707010204799 12.545988105479143 -1.4899751665994811 -0.397930823925319 10.316366455504854 -1.125074984244653 0.0 0.0 -1.2921003393445538e-15 -0.6671581791818179 17.270083051742784 0.047838261154522804 -2.4643901558928936 8.633839065971019 0.3924056628358157 -3.975693351829396e-16 4.138037154422024e-33 -1.1927080055488188e-15 8.516139611146533 22.072351810799592 -3.409631863003355 7.705841217999023e-08 4.856735057041582e-08 -1.8522062615683141 2.98936136273576 2.4986643626468115 177.96901269458294 112.05212717957401 -40.40931465521065 -171.90428683438742 -1.0077158976384067e-06 -1.0970962279658173e-06 34.1281913717768 0.0 0.0 -6.361109362927033e-15 -115.30512303585989 -25.42113323253229 170.57485700988633 -3.3943569355696807e-06 -1.5064695931680226e-06 -31.613046493465408 1.8884543421189626e-15 0.0 0.0
0.00023237135610543191 98.71052551269531 -0.0008122788276523352 -4.667134319535151 -5.1350121482267586 -14.38233306806195 6.454180196853792 11.44724700674248 -1.3121128780386428 -0.06516378897159991 9.173273498819368 -1.0211894412092537 -3.706991617503063e-33 9.939233379573489e-17 4.2738703532166e-15 -0.2906180171481857 17.13586713672556 0.039526302909075384 -2.151952979130427 9.217119335619788 0.364670997380339 3.9756933518293955e-16 -3.1805546814635164e-15 -2.9817700138720465e-16 8.507745074566573 21.40517407692012 -3.1776361955671866 1.9848132580708262e-07 -2.424217007299825e-08 -2.2229931139189794 3.125437069836725 2.7800153337118045 177.57534988019125 112.12882806127914 -40.5706952952059 -172.75202218678712 -6.086086115332886e-08 2.6401829530195042e-06 37.64043707107078 -3.1805546814635168e-15 1.7655625192200634e-31 -6.3611093629270335e-15 -114.72138191504139 -23.63683440338868 171.1562512606796 -5.545203937391826e-07 -2.077327600476023e-07 -31.585399738913576 5.466578358765421e-15 0.0 0.0
0.00028057710733264685 98.71061706542969 -0.0008362235967069864 -4.484058126706749 -4.791311561197186 -13.33946632398736 6.969492861864693 11.02073641862165 -1.3234790126423903 -0.018123756080399164 8.172418861148905 -0.9623950791977393 0.0 0.0 1.6896696745274934e-15 0.1212464139759452 17.005927900970566 -0.02132126190314476 -1.9510412915286088 9.97237837216836 0.3252581110109491 0.0 0.0 2.981770013872048e-16 8.58432351727574 20.804820712949976 -3.045791338668279 -2.7502725768313244e-07 5.090394434137808e-07 -2.187280362436778 3.0380942426164914 2.688256200601382 177.41833372535737 111.89276427041597 -41.04210031349117 -174.03433477376373 2.87443777421942e-06 8.352405352851898e-07 39.68896441568088 3.1805546814635176e-15 -1.2722218725854067e-14 6.3611093629270335e-15 -114.00053717169746 -21.72390503090077 172.37652553538524 -2.407140492918686e-06 1.859909403772591e-06 -32.36775984811549 -1.789062008323228e-15 0.0 0.0
0.0003312696353532374 98.71076965332031 -0.0008964747539721429 -4.123820045132561 -4.618894251688585 -12.440825429121315 7.463123799121803 11.031948383543085 -1.4086605800325114 -0.4834052453949253 7.307270282128144 -0.855946943917425 0.0 0.0 3.975693351829396e-16 0.5489086560896397 16.700961807219482 -0.12726267520397483 -2.373150892228069 11.209302311317495 0.37850936287875964 -1.9310840053969444e-32 -3.1805546814635168e-15 -6.957463365701443e-16 8.154202702847224 20.331945347139175 -2.8063775466300123 -7.476856537936862e-09 5.494728286331679e-07 -1.7543566814352403 3.218433242950307 2.519963355661203 176.18501180818575 110.98871720590243 -39.48524399470847 -176.03733415858377 2.8542496140056848e-06 7.32470702087812e-07 42.04205506336878 0.0 6.3611093629270335e-15 0.0 -113.08312910598144 -20.052453375313497 173.2457523885172 -1.1757595487215188e-06 5.873734844398528e-08 -32.95239603084059 7.553817368475854e-15 1.5902773407317588e-15 -1.0483027457869126e-31
0.00030253842123784125 98.71077728271484 -0.0009385516168549657 -4.0293377812825195 -4.78150410769483 -12.316104530963257 8.12516529006677 11.31604826561915 -1.5241472013407542 -1.4985964273887835 7.059439670026452 -0.7486557829521536 0.0 0.0 3.975693351829396e-16 0.5232287503480944 16.602774959509738 -0.04434205292377319 -1.9733404820450673 12.398064917531837 0.3913631977651248 0.0 0.0 -1.4411888400381559e-15 7.954354357464687 20.09375927366545 -2.613569207797418 -4.5042202498644326e-07 6.902799130269081e-07 -1.649782562569447 2.787198741705146 2.6356230950920243 176.56805819798467 110.16138694734542 -37.153939832157825 -177.59699909562906 7.562392613794719e-06 -2.0323986210905408e-07 44.19154764360845 3.1805546814635168e-15 0.0 0.0 -113.18983499194428 -20.929688564666254 173.35471312127112 1.3706342234059397e-06 4.3522726750321047e-07 -33.04953741094848 -7.95138670365879e-16 1.5902773407317582e-15 -3.1805546814635164e-15
0.0002729784755501896 98.71075439453125 -0.0009573465213179588 -4.306887826474402 -5.016204725924926 -12.925620816903319 8.821155531473849 12.100747074091101 -1.7157616992182705 -1.9066487747519554 6.7318782227478735 -0.7105678468938509 -8.276074308844047e-33 -1.5902773407317584e-15 -5.963540027744094e-16 1.0817529636754948 16.364359160288927 -0.11996973009045268 -2.3947491962781684 13.817215773071537 0.4738107495699146 0.0 0.0 2.4848083448933725e-16 7.651439366628872 19.919256103462438 -2.3879510222719973 9.566547524070796e-09 5.63192416528808e-07 -1.577724135835607 3.4150403526677047 2.859042474183971 176.2976164188232 108.80933112169126 -34.982963641805995 -178.8951521048033 -4.853701797822411e-06 -4.802479877160551e-06 45.29757184935506 -1.590277340731758e-15 8.827812596100317e-32 -6.361109362927032e-15 -112.95879886587497 -20.73640203587238 173.4232541913699 1.7907244758048929e-06 1.4386318293619976e-06 -32.8492730774289 7.156248033292914e-15 0.0 0.0
0.0001959138025995344 98.71068572998047 -0.0009823011932894588 -4.501349684292122 -5.231818911536988 -13.646979696253922 9.172642338085254 12.606288362494968 -1.8356459704797305 -2.0437358043087097 6.513071724393979 -0.6947535379127177 2.2069531490250793e-32 -1.5902773407317582e-15 1.5902773407317582e-15 1.4729988194670571 16.163016604145053 -0.19041915929414024 -2.657386101926265 15.261256494681936 0.525635930023443 0.0 0.0 -6.957463365701442e-16 7.2808397452740365 19.92477930660593 -2.2154161425250707 1.0559617910152021e-07 1.1228621118000207e-06 -1.4926915524761935 3.2759460326930667 3.334959501340069 176.70981467025118 108.59949432611648 -34.40599452345367 -179.3295961692774 -6.782891763177122e-06 -1.85451212187191e-06 44.82016304499674 1.2722218725854065e-14 0.0 0.0 -113.33378695311696 -22.04317176875382 173.1420079867173 8.547074058044899e-07 -7.309483086884434e-07 -32.72963388562997 9.939233379573488e-16 0.0 0.0
8.013621845748276e-05 98.71068572998047 -0.0010476644383743405 -4.477671115061652 -5.509537745284425 -13.413321678690327 9.437392812951195 13.079725292402335 -1.9629341257454638 -2.0095973885660956 6.513904881682577 -0.7257298816895436 -7.951386703658792e-16 4.138037154422024e-33 -5.963540027744094e-16 1.8679219619613348 15.51058930454861 -0.2862672703108466 -3.0075109527292825 17.262532914735274 0.585127436239237 -5.963540027744094e-16 -1.8103912550596355e-33 3.4787316828507215e-16 6.91176192423019 19.792726974909822 -2.0724139234066303 -2.6765277371377703e-07 -4.334011718234355e-07 -1.457716308771948 3.578238444178942 4.020897690725523 177.14737258824974 108.51201944937429 -34.09310996120527 -179.5891882257331 5.371947646300008e-06 4.6571927115351795e-06 43.20966447448093 -1.5902773407317584e-15 0.0 0.0 -113.17217088489886 -23.401407005533986 173.40207640389417 -3.016743000976018e-06 1.787684057998912e-06 -32.923637021717504 7.752602036067322e-15 0.0 0.0
3.0478804546874017e-05 98.71068572998047 -0.0010465843370184302 -4.389242469811856 -5.996140278697048 -13.50922494197368 9.442973845158837 13.824192699921833 -2.055680968094836 -1.5581470102917496 6.583651232194104 -0.7749067283848361 7.951386703658792e-16 1.5902773407317584e-15 -9.93923337957349e-17 1.8929361650142429 14.358629909390352 -0.25221655915288593 -2.873247767719702 20.026247339818745 0.6442132574354298 1.987846675914698e-16 8.620910738379216e-34 4.969616689786745e-16 6.1939482336895795 20.2566044037418 -1.8416623310590556 3.3612474451844883e-07 1.6884955391465791e-07 -1.2574707152505313 3.3101004063025345 4.480902117396205 176.24575242419465 108.87483744224009 -35.73518447878936 -178.81270847178638 3.7371395814856583e-06 -1.3979208044150145e-06 38.99369363949862 0.0 0.0 -6.361109362927033e-15 -113.06511716712298 -25.460777269234107 173.1818552799951 -8.514103370055753e-07 -5.351902759045785e-06 -33.273608507402024 1.987846675914698e-16 0.0 0.0
